<svg xmlns="http://www.w3.org/2000/svg" viewBox="0 0 4201.2 2363">
  <defs>
    <style>
      .d{fill:#373737}
    </style>
    <radialGradient id="a" cx="2100.73" cy="1181" r="1703.33" gradientUnits="userSpaceOnUse">
      <stop offset="0" stop-color="#1e1e1e"/>
      <stop offset="1" stop-color="#2b2b2b"/>
    </radialGradient>
    <linearGradient id="b" x1="1238.11" x2="1180.11" y1="1577.49" y2="1129.49" gradientUnits="userSpaceOnUse">
      <stop offset="0" stop-color="#373737" stop-opacity="0"/>
      <stop offset="1" stop-color="#373737"/>
    </linearGradient>
  </defs>
  <path fill="url(#a)" d="M1.2 0h4199v2362H1.2z"/>
  <path fill="url(#b)" d="M2403.1 828.8l-4.2-4.3c-76.7 72.6-191.8 177.4-304.9 264.8-123.3 95.1-211.7 144.4-262.8 146.4C1402.3 1252.5 734 1060 0 711v8q35.7 16.9 71.5 33.5L0 723.5v6.3l185 74.4q45.2 19.9 89.9 39.3c-101.2-36.6-192.1-68-275-94.1v6.2c108.4 34.2 229.1 75.9 369.9 127.9 27.3 11.4 54.6 22.4 81.7 33.3C256.9 853 114.9 810.3 0 785.3l-.5 8.1c131 28.5 296.8 76.9 536.7 156.6 24.4 9.4 48.8 18.6 73 27.7C423.5 922.2 214.9 864.1 0 833.8V846c247.8 35 477.4 97 691.9 161.8 14.6 5.2 29.1 10.4 43.6 15.4C515.6 965.1 262.5 904.9 0 892.8v13.7c290.4 13.4 569.2 77.3 804.5 140.2q31.5 10.6 62.7 20.7c-164.4-36.8-300.8-61.9-424.9-78.3C272.4 966.7 127.8 950.2 0 961v15.8c41.8-3.5 84.9-5.1 128.8-5.1 263.9 0 558.4 59 796.4 114 23.2 7.1 46.1 14.1 68.9 20.8-199.7-41-380.6-66.8-538.5-76.9-177.3-11.3-330.3-15-455.6 12.4v19.3c249-54.6 606.8-34.4 1062.5 64.7 13.1 3.7 26 7.2 39 10.7-217.3-37.4-414.6-57.4-587.4-59.4-98.7-1.1-192.1-5-276.8 5.4C151 1093.3 71.9 1098 0 1120.6v25.4c276.4-86.7 668.3-84.5 1163.4 6.8l28.8 7.2c-117-17.7-229.4-29.5-335-35.2-120.9-6.6-233.9-9.9-344.3-4.2-100.2 5.2-257.4 27.4-512.9 104.7v33c232.3-110.1 515.2-147.4 857.2-126.1 125.1 7.8 258.3 18.2 399.6 43q27.5 6.1 54.3 11.9c-127.1-15.2-248.1-24.6-360.5-28.1-136.1-4.2-263.2-5.5-378.6 7.3s-356.1 42.7-572 150v43.2c248.4-146.8 559.8-206.8 952.4-193.8 132.3 4.4 273.8 12.9 425.3 34.7l17.9 3.3c-151.8-12.9-294.2-18.3-424.2-16.1-145.7 2.5-281 14.6-401.9 36.2-116.9 20.8-225.7 44.9-321.5 83.9C156.2 1345 74.4 1375 0 1429.8v46.5c242-178.3 573.3-276.6 1024.9-281.6 133.5-1.5 277.5 4.6 432.8 19.7l12.5 1.9c-132.7-7.4-251-9.5-359.9-6.5-150 4.2-283.2 18.1-407.1 42.4-138.1 27.1-254.7 53.8-368.5 107.3C212.9 1416.7 97.5 1473.8 0 1563.3v39.6c238.8-219.3 530.9-317.4 833.7-359.4 232.4-32.2 471.2-33.4 697-18.5l8.9 1.2c-188-4.1-361.3.5-515.6 17.6-169.7 18.7-318.2 43.7-450 87.9-130.1 43.6-240.9 85.3-336 154.3-93.4 67.7-177 125.7-238 219v56c139.6-214 372.6-357.1 693.4-441.9 244.2-64.6 537.2-98.4 890.9-86.9-168.9.8-327.1 8.9-471.3 28.3-164.7 22.1-311.8 50.4-445 97s-246.1 98.2-348 169.5-213.5 162.8-284 259l16 29c267.9-365.2 813-577.8 1551.9-577.8l44.1.2c-393 17-721.6 76.3-977.1 176.6-130.1 51.1-397.6 157.5-553.6 414.3l22 40.7c93.1-178.4 281.1-340.2 542.4-438.4 291.2-109.5 614.2-178.9 1003.4-189.8-175 13.5-351.6 37.1-513.3 71.8-143.5 30.7-275.3 70.6-383.6 113.5-110.3 43.6-404.7 154.2-596.5 442.9l23.5 37.3c214.9-366.9 696.9-542.9 1141.3-617.8 120.2-20.3 237.1-36.9 348.6-44.4-91.4 12.5-193.6 25.7-290.1 43.9-35.9 6.8-94.4 19.8-129 27-142.3 29.6-287.3 71.6-417 128-183.1 79.7-432.2 184.3-577.2 466.8l14.9 31.9c75.7-123.2 158.1-231.7 267.3-312.4 231.3-170.9 526.7-267.6 849-332.3 66.7-13.4 156.7-28 225-39.2-126.7 24.6-263.8 57-371.1 87.1-153.9 43.2-291.7 91.2-409.4 146.5-123.4 58-229 125.9-313.8 197.9-88.5 75.1-157.2 159.3-204.2 250.1l19.8 25.6c91.4-176.6 258.5-341.4 509.4-459.3 218.2-102.6 484.7-189.9 828.8-252.8-138.2 31.7-259 63.6-367.5 97-148.6 45.6-275 94.2-386.7 148.4-124.3 60.3-226.6 125.8-312.5 200.1-45.3 39.2-86 81.1-121.1 124.6a838.7 838.7 0 0 0-93.7 143.4l8 30.6c209.5-407.3 747.1-615.3 1267.3-737.3-295.2 79.5-533.6 166.5-721.3 269.3a1405.9 1405.9 0 0 0-281.1 202.2c-80.9 74.8-143.4 156.4-186 242.7l20.4 29.1c83.5-169.2 227.9-331.1 459.7-458a2804.1 2804.1 0 0 1 390.1-176.6c111.3-40.6 231.8-80.8 367.1-116.5-291.9 93.9-513.5 176.6-688.2 276.4-106.8 61.1-199.4 130.7-271.9 198.4-78.2 73.1-133.2 157.1-173.3 239.8l25.5 27.5c77.7-159.7 219.7-321 425.4-445 58.6-35.4 128.6-67.8 201.4-103 128.7-62.3 280.3-122.6 466.7-184-54.2 19.9-104.4 41.3-153.1 61-175.6 70.9-327.7 138.6-447.2 213.6-100.6 63-184.6 125.7-251.7 193.4-73.8 74.5-158.4 159.2-198.8 244l59.4 8.9c91.2-185.4 228.1-314.2 403.3-429.6 48-31.7 99.4-60.1 151.6-88Q1423.8 1399 1560 1341c74.8-31.9 149.1-64.2 224.3-91.3-75 34.9-177.2 74.4-285.6 128-115.3 56.9-233.4 117.3-339.4 192-149.4 105.5-296.4 231.8-355.6 387.3l67.3-26c160.3-311.2 484.7-492.4 885.7-665.3-162.2 74.2-331.7 161.2-458.4 245.6-82.6 55.1-158.2 110-213.3 166.7-61.7 63.5-155 169.5-184 236.8l74.2-33c78.4-136 173.1-245 340.3-364.5 51.8-37.1 108.1-71.7 164.5-103.5 108.6-61.4 218.5-116.8 323-163.6-204.5 99.6-377.8 198.1-494.7 285.8-137.8 103.5-257 235.7-300.6 341.7l57.6-20.7c56.4-102.5 132-220.3 269.1-323.2 110.8-83.2 252.6-171.2 440.7-264.3-45.8 24.5-89.1 50.1-129.1 73.5-97.3 56.9-181.4 108-264 169-58.8 43.4-115.7 96.5-154 140s-127.1 158.4-143.5 201l57.9-28.5c38-83.4 145-214.7 259.9-305.5 68.7-54.3 150.9-110.9 246.2-168 59.3-35.6 123.9-72.6 190.9-109.7-149.1 87.1-297.4 184.1-397.4 263.7-136 108.2-227.2 217.4-285.3 315.7l57.3-31.7c70.3-137.3 297.4-351.1 599.8-526.8 33.6-19.5-1.2.3-54.8 36.8-67.5 45.9-166.8 117.3-221.1 161.8-169.1 138.4-265.5 243.5-304.9 321.2l48-24.3c31.5-62.2 118.7-168.4 269-291.5 117.6-96.3 234.8-183.1 309.6-224.9-169.8 111.5-294.4 219.7-370 292.8-97.8 94.7-175.2 186.7-188.3 218l53.7-27.3c26.5-34.8 53.6-95.4 146.3-185.1 70.1-67.9 206.7-189.4 357.5-292.7-102.4 75.6-234.1 188.7-297.7 254-90 92.4-169.4 192-186.1 218.8l39.1-20.4c13.8-22.2 71.9-105 169-204.8 68-69.8 195-185.3 287.9-251.9-57.2 47-154.1 127-222.7 199.6-64.9 68.6-137.3 152.7-205.3 246l34.4-19.6c170.6-218.2 316-369 444.8-455.8-155.2 121.3-332 320.6-413.4 435.4l47.7-34.3c90.6-120.6 243.8-299.9 401.4-421.3-181.1 160.8-314.3 316.4-370.9 398.3l45-38c65.3-87.1 173-213.5 357.5-381.4l6.5-4.2c-113.6 103.2-250.9 256.6-343.9 371.3l53.4-48.6c111.9-128.8 215.7-248.4 324.4-345.9l12.8-9.2c-90.3 91.1-218.7 224.1-309.1 338.2l53.9-41.1a3670 3670 0 0 1 281.3-316.2c7.2-5.3 14.4-10.8 21.7-16.3-92.6 100.6-185.9 205.4-248.8 282.4l38.3-32c67.4-82.5 136.1-162.6 234.4-269q19.2-15.1 38.4-30.7c-72.9 80.6-164.1 182.2-209.8 241l28-21.8c50.4-65 133.2-157.9 208.1-240.9 21.8-18.1 43.3-36.5 64.1-54.5-75.8 82-157.5 173.8-203.4 228.7l46.2-39.5c52.7-63.1 111.9-133.7 194.6-222.1 48.2-42.8 90.9-82.5 122.5-112.4zm-554.8 412.9l-1.1-1.9 7.1-1.5z" opacity=".5" transform="translate(1.2 1)"/>
  <path d="M1.2 962.1v49.5s653.1 582.9 822 748.1l617.1 603.3h34.5s-424.2-411.4-642.6-617.3zM1.2 864v44s643.3 533.3 919.3 776.7 732.7 678.3 732.7 678.3h36s-556.8-513.7-757.3-688.3zM1.2 784v38s840.7 656.7 1114 884 748.5 657 748.5 657h31s-510.8-447.7-767.5-665S1.2 784 1.2 784zM1.2 2319.5L34 2363h40.5l-73.3-96.2v52.7zM1.2 2000l285 363h39.3L1.2 1959.5v40.5zM1.2 1726.5C207.5 1967.9 368.5 2165 530.5 2363h37c-162-198-360-431.1-566.3-672.5zM1.2 1497c331.7 367.9 563.2 630.6 767.3 866H804c-204.1-235.4-471.1-532.6-802.8-900.5zM1.2 1298.5c443.9 463.3 750.4 791.7 998.3 1064.5h33.7C785.3 2090.2 444 1731.3.1 1268zM1.2 735.5l-1.1 22c396 283 757.8 539.8 1094.1 801.5 357.2 277.9 672.5 542.1 972.8 804h31.2c-297.7-259.7-643.7-535.3-999.7-812.2C764.1 1290.6 393.4 1015.7 1.2 735.5zM1258.2 1561.5c-88.9-65.3-181-129.4-272.2-194.7C677.5 1145.6 346.6 917.3 2.3 688.3L0 712.5c449 298.7 862.2 567.3 1249.2 851.5 227.1 166.8 443.4 334.6 654 500 114.5 89.9 349.9 288.7 362.3 299h32.4c-12.5-10.3-273.2-219.6-387.7-309.5-207-162.5-425.6-325.7-652-492zM2696.2 1570.7c92.2 35.6 190.5 73.3 284 113.1 501.7 213.4 894.5 410.7 1221 591.2v-37c-321.4-182.8-708.1-350.7-1218.5-560.5S1980.6 1309.7 1524 1206.6l16.7 2.5c469.3 86.6 979.9 237.4 1521 446.9 429.8 166.5 804.1 350.1 1138.5 520.4v-39.6c-334.6-170.4-705.3-320.9-1135.2-487.4-516.3-199.9-1006.4-343.8-1458.1-431.8l22.1 2.4c344.5 56.5 711 142.1 1113.3 271.1 506 162.2 999.9 378.4 1457.9 591.6v-35.9c-478.1-220.1-967-405.9-1461-563.5-380.8-121.4-725.4-201.7-1053.3-257.8 358.4 45.3 756.2 133.4 1174.7 257.4 431.6 127.9 886.1 312.4 1339.6 511.5v-33.8c-454.3-199.4-904-354.2-1338.1-482.8-394.6-116.9-766.5-199.9-1106.8-247.1 342.4 34.6 718.4 107.4 1108.2 210 434.2 114.3 886.6 287.8 1336.7 475.1v-39.4c-448.5-186.7-914.7-328.1-1338.3-441.9-206.5-55.5-407.5-101.5-600.1-135.4-165.4-29.1-325.5-53.1-477.2-69.4 338.7 22.7 700.8 81.6 1085.8 171.6 419.8 98 864.8 251.7 1329.8 431.5v-31.5c-237.7-91.1-469.3-165-694-235.3-216.5-67.7-432.4-122.1-636.6-170.5-196.2-46.5-388.9-83.9-573.6-112.5-145.9-22.6-289.8-39.7-428.9-51.2l26.8 1.3c21.5.9 43.8 1.9 65.4 3.3 349.5 22.5 695.4 75.5 1090.2 165.6 373.4 85.2 740 208.9 1150.7 356.3v-30.2c-193.2-69.3-371.7-121-549.7-174.6-203.4-61.2-399.5-111.4-598.6-156.8-122.9-28.1-241.3-52.5-356.4-73.5-254.9-46.5-495-75.3-735.9-90.8-21.6-1.4-44-2.4-65.6-3.3-15.6-.7-31.5-1.4-47.4-2.3 79.6-.7 278.8 4.4 450 20.8 312.5 30 605.8 77.5 913.5 146.3 306 68.3 626.9 172.5 990.1 293v-31.8c-374.3-124.1-688-199.6-988.2-267.2s-581.8-115.2-915-144.3c-145-12.6-309.9-19.2-405.6-20.6 357.2-7.2 726.6 27.7 1120.7 89.1 375.1 58.5 771.7 171.2 1188.1 306.8v-32.8c-204.9-64.2-310.4-91.9-593.5-160.6-201.3-48.9-400.4-86.9-591.4-118.9-199.1-33.3-396-57.9-585.2-72.2-182-13.9-362-19-535.9-15.4 399.5-22.3 818.4 3.9 1256 75 339.3 55 691.6 147.5 1050 256.1v-32c-358.4-108.7-707.7-176.7-1047.1-230.8-420.8-67.1-825.7-92.2-1211.3-74.7 95.1-7.7 189.2-14.1 282.3-16.6 52.5-1.4 104.7-1.6 156.7-1.4 193.8.9 386.4 13.3 578.2 33.8 75.1 8.1 151.1 19.1 231.8 28.8 297.9 35.8 629.9 123.5 1009.4 223.4v-29.5c-236.6-59.1-445.5-103.4-643.8-141.6-127.5-24.6-249.2-41.6-364.4-58.3-79.9-11.6-157.4-20.4-233.3-28.5a5540.8 5540.8 0 0 0-578-31.4c-51.6-.1-103.8.5-156.2 1.9-98.2 2.6-197.6 8.7-297.1 16.7 149.5-16.9 275.6-27.2 393.1-32 198.9-8.2 383.7-4.8 617.7 11.5 84.1 5.8 164.7 15.3 249.8 24.6 339 36.9 687.5 112.8 1012.2 199.1v-29.3c-324.8-86.4-668.3-138.7-1007.4-175.7-85.2-9.3-170-18.2-254.3-24.1-234.2-16.3-419.1-18.3-618.1-10.1-115 4.7-238.1 14.6-383.4 30.9 89.8-14 221.9-32.9 386.4-45.3 209.4-15.8 429.7-17.5 649.2-5.3 85.1 4.7 169.1 11.8 254.3 19.8 327 30.6 652.7 94.7 973.3 172.4v-27.9c-195.3-46.2-427.3-80.9-645.2-112a6821.08 6821.08 0 0 0-328.6-38.8c-85.6-8.1-171.3-14.2-255.9-18.9a4996.1 4996.1 0 0 0-647.5 6.7c-159.6 12-288.6 30.2-378.2 44 105.9-20 235.9-42.1 376-58.7 207.3-24.5 426.4-29.9 653.4-23.5 95.1 2.7 191.9 7.5 288.5 14.6 307.3 22.8 622.2 78.3 937.9 147.9l-.4-26c-315.5-69.5-628.8-105.3-935.9-128.1-97.1-7.2-193.4-11.3-288.9-14-227.2-6.5-447.8 1.6-655.4 26.1-144.1 16.9-272.1 38.3-378.3 58.3 128.8-31.2 252.7-55.1 377.7-72.7 209.6-29.7 427.5-44.6 655.7-44.6 103.4 0 208.8 4.9 316.6 9.2 293.5 11.8 593.9 62.1 908.5 124.9v-22.7c-183-30-348.5-56.3-508.3-76.7-134.8-17.2-266.5-25.2-395.4-32.5-28.7-1.6-59.2-2.3-87.5-3.5-156-6.6-309.8-5-456.8.8s-293.5 20.9-433.4 41.1c-120.7 17.4-240.6 40-364.8 69.7 110.1-29 236.6-60.2 368.3-84.1 221.4-40.2 441.7-60.7 687.7-66.1 96.6-2.2 201.5-1.6 302.7 2.1 92 3.4 187 6.4 285.8 16.3 183.6 18.5 380.9 49.4 601.7 83.8v-22c-224.1-34.9-419.7-54.2-599-69.6-98.8-8.5-190.8-11.9-284-15.3-101-3.7-206.6-3.7-304-1.6-246.2 5.5-470 28.2-691.6 68.4-125.6 22.8-246.3 52.2-352.7 80 320.8-105.2 671.4-166.7 1057.3-184.9 80.7-3.7 162.8-4.1 246.7-4.1 289.3 0 598 33 927.3 78l.2-21.6c-206.1-28.2-402.3-44.1-589.5-54.7-113.1-6.4-227.3-8.2-335.6-8.3-85.3-.1-169 2.3-250.4 6.1-196.7 9.4-387.6 30.5-567.4 62.8-169 30.4-333.2 71.6-489.2 122.7 433.4-160.5 899.4-235.8 1431.2-235.7 251.2.1 517.9 26.9 800.9 61.8l-.2-24c-286.1-35.3-550.8-45.5-801.5-45.2-123.2.1-243.1 5.8-360.2 13.9-193.9 13.3-391.2 37.9-570.5 79.7-79.1 18.4-155.5 36-231.5 57.5-87.2 24.6-173.4 53-258.5 84.2 448.8-189.9 978.7-286.6 1581.6-282 205.1 1.5 419.2 19.5 640.8 41.4v-20.5c-220.3-21.7-434.6-30.2-640.8-30.1a5199.5 5199.5 0 0 0-560.4 30.3 4118 4118 0 0 0-551.2 99c-158.2 39.5-309.5 91.2-451.2 149.9q453-211.4 1018.9-288.4c212-28.7 436-42.4 670.5-42.4 165.8 0 337.4 13 514 27.4v-18.4c-430.8-32.8-837.2-18.5-1184.7 26.6-192.4 25-376.5 65.2-549.3 114.5-165 47.1-323 107.8-469.9 176.5 322-165.7 673.3-273.9 1064.7-336.3 229.1-36.6 473.5-54.2 729.7-54.2 132.5 0 269.5 7.4 409.7 16.9v-17.8c-201-13.6-396.9-11-582.1-4.8a4547.8 4547.8 0 0 0-565.3 54.1c-189.3 30.2-373.8 71.4-546.2 126.2a3281.3 3281.3 0 0 0-483.4 197.5l8.6-5.8h.1c322-177.5 667.6-297 1062.9-366.3 276.2-48.4 576.5-69.2 910.3-69.2 63.7 0 129.1 6.4 195.2 8.1v-16c-200.6-5.1-381.7-2.6-555.1 7.3-195.7 11.1-376.6 32.6-551.1 63.4-188.2 33.3-370 80-540 137.7a3232.5 3232.5 0 0 0-492.8 214.5l18.8-13.6c394.8-224.6 802.2-359.5 1282.3-427.5 290-41 572.1-52 837.9-44v-15.4c-266.1-8-548.5 10.6-838.7 51.7C2892 726 2492.2 860.1 2105.4 1076l6.4-4.9h.1c125.2-75.6 234.8-134.5 336.5-182.6 142.2-67.3 291.6-123.1 448.3-170.2 145.8-43.9 298.6-81.7 461-108.7 282.9-47 558.7-67.9 842.7-66.3l-.2-14.4c-143.6-1.6-289.1 8.1-431.5 19.9-136.3 11.2-274.8 29.4-412 53.1-164.7 28.3-315.2 64.4-460.7 108.4a3177.7 3177.7 0 0 0-448.5 172.4c-93.8 44.4-195.1 99.9-308.5 167.5l9.7-7.7h.1C2255 974.9 2350.9 915.2 2446 866c148.1-76.7 297.7-139.5 454.6-193.1 139.1-47.4 284.3-85.9 439.6-118.2 272.7-56.9 561.7-86 860.1-93.5v-13.8c-298.6 7.5-587.3 40.7-860.2 97.6a3659.3 3659.3 0 0 0-441.4 120.8c-156.8 53.5-306.6 119.4-454.7 196-85.9 44.5-172.1 98-266.2 157.6l10.8-8.7c291.9-208.3 616.3-361.8 976.7-468.2C3481 449.3 3824 394.9 4200.4 377.4v-13.9c-180.9 8.4-356.9 28.3-522.5 54-179 27.8-353.6 68.3-516.7 116.5-174.1 51.5-341.9 114.3-499.5 189.5-151.5 72.2-296.8 159.5-433.9 254.7l12.6-10.6c267.7-200.5 567.1-358.9 896.8-469.6 334.1-112.2 692-182.5 1063-206l.2-13.5c-378.7 25.1-738.4 98-1063.5 208.8-311.9 106.3-598.8 259.2-855.7 445.3l19-16.6c273.2-212.4 570.2-373.5 890-489.4 317.4-115 654.8-190.3 1010-221.6l.2-14.1c-355.6 27.9-696.6 105.6-1012.9 224.1-159.2 59.7-316.7 131.6-464 213.7-132.8 73.9-260.3 159-382.5 251.1l14.1-12.7c255.9-211.2 549.7-380.7 869.1-508.8 304-121.9 631.1-201.7 976.2-241.5v-14.7c-345.2 39.9-676.7 124.5-981.2 246.6-297.6 119.2-569.8 279.6-812.8 471.9 18.8-16.9 38.1-33.9 57.3-51.2 273.4-221.9 558.9-386.5 869.5-510.1C3602.9 152.1 3888.6 73.1 4200.5 27V11.1c-314.6 46.6-602.4 126.3-871.3 236.2a3375.2 3375.2 0 0 0-441.3 219.4c-133.3 78.8-257.3 165.9-382.4 264.4l4.4-4.1 30.3-28.7c202.3-166.1 431.2-317.2 641.3-424.6C3411.1 156.3 3675.6 58.1 3906 1h-58c-228.8 56.8-443.4 145.7-674.8 264.3C2970 369.5 2772.9 503.6 2581.7 659q23.3-21.9 46.3-44c159.3-135.2 328.8-255.7 499.2-358.7C3300.6 151.6 3496.8 62.5 3665.7 1H3624c-169.5 61.7-329.3 142.9-504.8 249-153.6 92.9-298.3 198.5-440.6 316.5 17.6-16.9 35.1-33.9 52.3-50.7 124.4-105.8 250.3-201.4 374.3-285.5C3240.1 138.9 3390.3 57.9 3511.8 1h-34.6c-120.9 56.6-239.8 128.4-377.3 221.7-110.8 75.1-213.7 155.3-319.8 244.5l4.1-4.1c13.6-13.5 27-27 40.2-40.3 98.7-86.6 189.5-159.8 286.3-231.9C3209 117.6 3318.8 51.3 3404.6 1h-26.7c-85.7 50.2-167.7 106.7-266.4 180.2-82.2 61.2-166.4 131.4-251.2 205.2 24.2-24.5 47.7-48.5 70.3-71.7 48.6-43.6 96.6-85.1 143.1-123.8 91.7-76.3 186-143.2 255.5-189.9h-19.3c-69.4 46.5-142.1 104.5-233.5 180.5-34.1 28.3-70.3 60.1-106.8 92.9 22.5-23.3 44-45.6 64.2-66.8C3132.4 120 3219 46.5 3277.7 1H3265c-51.4 39.8-112 93.6-190.9 164.3l66.5-70.5c37-34.2 78.7-72.4 104.7-93.8h-7.4c-16.2 13.3-36.7 32-58.7 52.4 30.3-32.5 47.5-51.5 48.4-52.4h-5c-2.5 2.7-145.3 155-339.3 351.8-34.6 35.1-70.3 72.2-107.7 109.6C2690 547.7 2597.3 637 2506 723.5c-41 38.8-82.8 76.1-123.2 113-238.4 218.4-422 351.1-530.8 383.6a93.4 93.4 0 0 1-14.8 2.8h-.1c-31.1 3.9-90.6 2.9-165.7-3.1-99.8-7.9-210.4-25.1-333.4-51.9l-1.2-.2q-59.5-13-123.2-29.1l-3.3-.8q-64.8-16.3-133.9-36l-1-.2q-61.7-17.5-126.9-37.5C598.9 956.8 360.2 854.7 221.6 788 71.4 715.7 3 668.2 2.3 667.7L.1 671c.4.3 37 25.8 115.1 67.6 414.3 252.2 851 532.3 1252.3 808.9 184.7 127.3 366.7 258.8 547 390.2 158.7 115.5 516.1 401.8 546.4 425.3h34c-30.3-23.5-416.4-317.1-575-432.7-178.2-129.8-362.1-259.3-547-386.8-112.2-77.3-226.2-151.6-339.6-227.2A26118.86 26118.86 0 0 0 187 775.5c10.5 5.2 21.3 10.6 32.7 16 30.1 14.5 64.9 30.7 104.6 48.2 352.8 192.8 732.4 420 1121.1 670.4 215 138.5 432.4 285.5 650 436.4 126.9 88.1 251 183.7 381.1 280.2 63.6 47.1 107.1 88.4 172.7 136.3h42.3c-65.6-47.9-133.1-99.2-196.6-146.3-130.2-96.5-268.3-188.3-395.4-276.4-213.7-148.2-430-292.9-644.1-431-90.5-58.3-181.4-113.4-271.2-169.4-285.5-178-561.1-340.3-820-482.8 33.8 14.5 70.5 29.7 110.4 45.6 359.6 182.8 707.7 374.7 1041.6 573 230 136.6 452.9 277.6 668 420 200.3 132.7 401.4 283.4 656.5 467.2h45.5c-255.1-183.9-498.7-340.5-699-473.2-214.2-141.8-437.5-280.9-665.9-416.7-74.5-44.3-149.8-87.8-225.3-131.2-251.8-144.4-515.2-287-783.4-424.1q55.4 21.6 118 44.4c333.8 157.7 644.1 316 942.4 478.8 75.3 41.1 150.7 85 223.5 126.3 440.2 249.5 836.2 509.8 1231.2 795.7h48.7c-166-117.7-351.7-237.4-532.1-351.1-42-26.5-87.1-53.9-127.9-79.7-199.7-126.3-407.5-250.6-618.8-370.8-72.3-41.1-141.8-80.2-215.4-121.2-285.5-159-588.4-310.4-913.2-464.3 24.7 8.8 50.3 17.7 76.6 26.7q453.2 190.6 895.9 416.2c548.8 278.6 1064.5 592.8 1578.5 944.1h46.9c-513.2-350.7-1072.5-668.6-1620.4-946.8q-420.6-213.4-851.3-396.7c17.6 5.9 35.5 11.7 53.8 17.6 226.6 85.6 506.3 198.6 839.3 354C2162.4 1612 2720.7 1918.3 3405 2363h57.2c-267-186.6-564.2-337.3-822-484.3-231.3-132-463.3-255.7-689.7-367.8-86.1-42.6-172.3-82.8-257.7-122.6-253.1-118.1-505.5-225.9-776.6-330l31.2 9.6 3.2 1c254.5 85.1 517.2 183.1 782.2 298.6 619.7 270 1234.4 600.1 1860.9 995.5h55.7c-439.2-276.4-915.9-528.4-1354.7-743.2-187-91.6-373.8-176.8-557.6-255.5-232.8-99.8-462.9-188.2-687.6-266l25.8 7.4c214.5 64.2 437.8 141 663.9 228 236.1 90.9 474 195.6 710.5 303.4 401.5 183.1 822.6 418.9 1332.5 725.9h54.7c-236.2-145.7-478.8-283-698.4-395.7-245.3-125.9-473.5-235.1-687.2-335.5-235.4-110.7-474-210.9-709.1-301.5-186.8-71.9-372-136.8-552.2-193.6l22.6 5.8c200.1 53 399.1 116.1 596.1 185.3 455.2 159.7 894.9 357 1292 554.7 335 166.8 620.7 330.8 876.2 480.5h55.3c-296.2-173.5-622-340.8-915.5-487-153-76.2-309.5-145.2-460.2-213.2-290.2-131-572-242.4-843-337.7q-250.6-88.2-488.5-155.9l12 2.6c160.8 39.5 326.6 84.8 494.2 137.1 311.6 97.1 632.1 215.1 955.5 354.4 131.7 56.7 265.3 116.3 396.8 180.5 339.6 165.7 649.1 332.4 982.4 519.2h34.3l1-20.3c-223.3-128.9-451.6-239.3-686-356-104.9-52.3-213.2-100.3-319-149.4-135.4-62.9-272.4-121.5-407.2-178.3-247.3-104.2-493.4-200.2-732.1-281.3-75.2-25.6-149.7-49.1-223.7-72.2-138.9-43.4-275.7-81.7-408.6-115.8l24 4.4c394.1 84.6 810.6 207.8 1247.6 376.6zM.1 1105.5l1.1 35c547.9 530.9 926.5 909 1222.7 1222.5h32.3C960 2049.5 548.1 1636.4.1 1105.5z" class="d"/>
</svg>
