<?xml version="1.0" encoding="utf-8"?>
<!-- Generator: Adobe Illustrator 24.0.2, SVG Export Plug-In . SVG Version: 6.00 Build 0)  -->
<svg version="1.1" id="Layer_1" xmlns="http://www.w3.org/2000/svg" xmlns:xlink="http://www.w3.org/1999/xlink" x="0px" y="0px"
	 viewBox="0 0 111.7 34.2" style="enable-background:new 0 0 111.7 34.2;" xml:space="preserve">
<style type="text/css">
	.st0{fill:#FFFFFF;}
	.st1{clip-path:url(#SVGID_3_);}
	.st2{clip-path:url(#SVGID_5_);}
	.st3{clip-path:url(#SVGID_7_);}
	.st4{clip-path:url(#SVGID_9_);}
	.st5{clip-path:url(#SVGID_12_);}
	.st6{clip-path:url(#SVGID_15_);}
	.st7{clip-path:url(#SVGID_17_);}
</style>
<g>
	<g>
		<path id="SVGID_1_" class="st0" d="M74.4,6.7h2.7c1,0.1,1.8-0.6,1.9-1.6c0-0.1,0-0.2,0-0.2c0.1-0.9-0.5-1.7-1.4-1.8
			c-0.1,0-0.3,0-0.4,0h-2.8C74.4,3.1,74.4,6.7,74.4,6.7z M72.5,1.7h4.7c3.1,0,3.6,2,3.6,3.3s-0.6,3.3-3.6,3.2h-2.9v4.1h-1.9
			L72.5,1.7z"/>
	</g>
	<g>
		<defs>
			<path id="SVGID_2_" d="M74.4,6.7h2.7c1,0.1,1.8-0.6,1.9-1.6c0-0.1,0-0.2,0-0.2c0.1-0.9-0.5-1.7-1.4-1.8c-0.1,0-0.3,0-0.4,0h-2.8
				C74.4,3.1,74.4,6.7,74.4,6.7z M72.5,1.7h4.7c3.1,0,3.6,2,3.6,3.3s-0.6,3.3-3.6,3.2h-2.9v4.1h-1.9L72.5,1.7z"/>
		</defs>
		<use xlink:href="#SVGID_2_"  style="overflow:visible;fill:#FFFFFF;"/>
		<clipPath id="SVGID_3_">
			<use xlink:href="#SVGID_2_"  style="overflow:visible;"/>
		</clipPath>
		<g class="st1">
			<rect x="67.4" y="-3.3" class="st0" width="18.4" height="20.7"/>
		</g>
	</g>
</g>
<g>
	<g>
		<defs>
			<polygon id="SVGID_4_" points="82.2,1.7 84.1,1.7 84.1,10.7 89.6,10.7 89.6,12.3 82.3,12.3 			"/>
		</defs>
		<use xlink:href="#SVGID_4_"  style="overflow:visible;fill:#FFFFFF;"/>
		<clipPath id="SVGID_5_">
			<use xlink:href="#SVGID_4_"  style="overflow:visible;"/>
		</clipPath>
		<g class="st2">
			<rect x="77.2" y="-3.3" class="st0" width="17.4" height="20.7"/>
		</g>
	</g>
</g>
<g>
	<g>
		<defs>
			<path id="SVGID_6_" d="M90.4,1.7h1.9v6.2c0,1.4,0.1,3.1,2.6,3.1s2.6-1.7,2.6-3.1V1.6h1.9v6.8c0,2.8-1.8,4.1-4.4,4.1
				s-4.4-1.3-4.4-4.1V1.7H90.4z"/>
		</defs>
		<use xlink:href="#SVGID_6_"  style="overflow:visible;fill:#FFFFFF;"/>
		<clipPath id="SVGID_7_">
			<use xlink:href="#SVGID_6_"  style="overflow:visible;"/>
		</clipPath>
		<g class="st3">
			<rect x="85.4" y="-3.4" class="st0" width="18.9" height="20.9"/>
		</g>
	</g>
</g>
<g>
	<g>
		<defs>
			<path id="SVGID_8_" d="M102.6,8.8c0,1.7,1.2,2.3,2.7,2.3s2.2-0.8,2.2-1.6c0-0.6-0.3-1.2-0.9-1.3c-1-0.4-2.1-0.7-3.2-0.9
				c-1.8-0.5-2.4-1.6-2.4-2.7c0-2.2,2-3.2,3.9-3.2c2.2,0,4.1,1.2,4.1,3.5h-1.9c-0.1-1.4-1-1.9-2.3-1.9c-0.9,0-2,0.3-2,1.4
				c0,0.8,0.5,1.1,1.3,1.4c0.1,0.1,2.6,0.7,3.1,0.8c1.2,0.3,2,1.5,2,2.7c0,2.4-2.2,3.4-4.3,3.4c-2.4,0-4.4-1.1-4.5-3.8h2.2V8.8z"/>
		</defs>
		<use xlink:href="#SVGID_8_"  style="overflow:visible;fill:#FFFFFF;"/>
		<clipPath id="SVGID_9_">
			<use xlink:href="#SVGID_8_"  style="overflow:visible;"/>
		</clipPath>
		<g class="st4">
			<rect x="95.6" y="-3.6" class="st0" width="18.7" height="21.3"/>
		</g>
	</g>
</g>
<g>
	<g>
		<defs>
			<path id="SVGID_10_" d="M11.8,16.4c0,0,4.1,0.1,6,0c2.2-0.1,3.4-1.5,3.5-3.8s-1-3.9-3.3-4c-2-0.2-6.4-0.1-6.4-0.1L11.8,16.4z
				 M11.8,23.2v9.5H2v-31h6.2c4.7,0.1,9.4-0.1,14,0.2c7.3,0.5,9.5,6.3,9,11.5c-0.6,6.1-4.2,9.4-10.3,9.7
				C17.9,23.2,11.8,23.2,11.8,23.2z"/>
		</defs>
		<use xlink:href="#SVGID_10_"  style="overflow:visible;fill:#FFFFFF;"/>
		<clipPath id="SVGID_12_">
			<use xlink:href="#SVGID_10_"  style="overflow:visible;"/>
		</clipPath>
		<g class="st5">
			<rect x="-3" y="-3.3" class="st0" width="39.3" height="41"/>
		</g>
	</g>
</g>
<g>
	<g>
		<polygon id="SVGID_11_" class="st0" points="54.5,25 54.5,32.7 32.9,32.7 32.9,1.7 42.5,1.7 42.5,25 		"/>
	</g>
	<g>
		<defs>
			<polygon id="SVGID_14_" points="54.5,25 54.5,32.7 32.9,32.7 32.9,1.7 42.5,1.7 42.5,25 			"/>
		</defs>
		<use xlink:href="#SVGID_14_"  style="overflow:visible;fill:#FFFFFF;"/>
		<clipPath id="SVGID_15_">
			<use xlink:href="#SVGID_14_"  style="overflow:visible;"/>
		</clipPath>
		<g class="st6">
			<rect x="27.9" y="-3.3" class="st0" width="31.6" height="41"/>
		</g>
	</g>
</g>
<g>
	<g>
		<rect id="SVGID_13_" x="56.5" y="1.7" class="st0" width="9.6" height="31"/>
	</g>
	<g>
		<defs>
			<rect id="SVGID_16_" x="56.5" y="1.7" width="9.6" height="31"/>
		</defs>
		<use xlink:href="#SVGID_16_"  style="overflow:visible;fill:#FFFFFF;"/>
		<clipPath id="SVGID_17_">
			<use xlink:href="#SVGID_16_"  style="overflow:visible;"/>
		</clipPath>
		<g class="st7">
			<rect x="51.5" y="-3.3" class="st0" width="19.6" height="41"/>
		</g>
	</g>
</g>
</svg>
