<svg xmlns="http://www.w3.org/2000/svg" viewBox="0 0 1008 1008"><path d="M1008 192.3c-28.4 39.8-62.6 77.4-103.5 105.8 1.1 9.1 1.1 18.2 1.1 27.3 0 273-208.2 588.2-588.2 588.2A581 581 0 0 1 0 820.3 411.3 411.3 0 0 0 306.1 735a207.5 207.5 0 0 1-193.4-143.3c13.7 2.3 26.2 3.4 39.8 3.4 18.2 0 36.4-2.3 53.5-6.8A206.9 206.9 0 0 1 41 384.5v-2.3c27.3 15.9 59.2 25 93.3 26.2a204.7 204.7 0 0 1-92.2-171.8c0-38.7 10.2-74 28.4-104.7A588 588 0 0 0 496 348.1a210 210 0 0 1-4.6-46.6 206.9 206.9 0 0 1 357.2-142.3 395 395 0 0 0 130.8-50.1A206.6 206.6 0 0 1 889.5 224a409.3 409.3 0 0 0 118.5-31.7z"/></svg>
